<svg width="40" height="40" viewBox="0 0 40 40" fill="none" xmlns="http://www.w3.org/2000/svg">
<path fill-rule="evenodd" clip-rule="evenodd" d="M15.7502 11.8008H12.5902L11.8202 23.4008C11.7736 24.0846 11.868 24.7707 12.0977 25.4164C12.3274 26.0622 12.6874 26.6538 13.1554 27.1546C13.6233 27.6553 14.1892 28.0546 14.818 28.3274C15.4467 28.6003 16.1248 28.741 16.8102 28.7408H24.1902C24.8747 28.7409 25.5519 28.6005 26.1799 28.3282C26.8079 28.056 27.3733 27.6577 27.8411 27.158C28.3089 26.6583 28.6691 26.0679 28.8995 25.4233C29.1298 24.7788 29.2253 24.0938 29.1802 23.4108L28.4002 11.8008H15.7502ZM15.7502 12.8008H13.5302L12.8202 23.4708C12.7832 24.0175 12.8589 24.566 13.0427 25.0822C13.2264 25.5984 13.5143 26.0714 13.8884 26.4718C14.2625 26.8721 14.7149 27.1914 15.2175 27.4097C15.7201 27.628 16.2622 27.7407 16.8102 27.7408H24.1902C24.739 27.742 25.2822 27.6303 25.7859 27.4127C26.2897 27.195 26.7433 26.8759 27.1185 26.4754C27.4937 26.0749 27.7825 25.6015 27.9668 25.0846C28.1512 24.5676 28.2272 24.0183 28.1902 23.4708L27.4702 12.8008H25.2502V13.4308C25.2502 14.0546 25.1273 14.6722 24.8886 15.2485C24.6499 15.8248 24.3 16.3485 23.8589 16.7895C23.4178 17.2306 22.8942 17.5805 22.3179 17.8192C21.7416 18.0579 21.1239 18.1808 20.5002 18.1808C19.8764 18.1808 19.2587 18.0579 18.6824 17.8192C18.1061 17.5805 17.5825 17.2306 17.1414 16.7895C16.7003 16.3485 16.3504 15.8248 16.1117 15.2485C15.873 14.6722 15.7502 14.0546 15.7502 13.4308V12.8008ZM24.2502 12.8008H16.7502V13.4308C16.7502 14.4253 17.1453 15.3792 17.8485 16.0824C18.5518 16.7857 19.5056 17.1808 20.5002 17.1808C21.4947 17.1808 22.4486 16.7857 23.1518 16.0824C23.8551 15.3792 24.2502 14.4253 24.2502 13.4308V12.8008Z" fill="black"/>
</svg>
