<svg width="40" height="40" viewBox="0 0 40 40" fill="none" xmlns="http://www.w3.org/2000/svg">
<g clip-path="url(#clip0_5648_10263)">
<path fill-rule="evenodd" clip-rule="evenodd" d="M17.5 15.2695C17.5 14.4739 17.8161 13.7108 18.3787 13.1482C18.9413 12.5856 19.7044 12.2695 20.5 12.2695C21.2956 12.2695 22.0587 12.5856 22.6213 13.1482C23.1839 13.7108 23.5 14.4739 23.5 15.2695C23.5 16.0652 23.1839 16.8282 22.6213 17.3909C22.0587 17.9535 21.2956 18.2695 20.5 18.2695C19.7044 18.2695 18.9413 17.9535 18.3787 17.3909C17.8161 16.8282 17.5 16.0652 17.5 15.2695ZM20.5 11.2695C19.4391 11.2695 18.4217 11.691 17.6716 12.4411C16.9214 13.1912 16.5 14.2087 16.5 15.2695C16.5 16.3304 16.9214 17.3478 17.6716 18.098C18.4217 18.8481 19.4391 19.2695 20.5 19.2695C21.5609 19.2695 22.5783 18.8481 23.3284 18.098C24.0786 17.3478 24.5 16.3304 24.5 15.2695C24.5 14.2087 24.0786 13.1912 23.3284 12.4411C22.5783 11.691 21.5609 11.2695 20.5 11.2695ZM26.08 23.4195C27.2 24.2395 27.91 25.6595 27.99 28.2695H13.01C13.09 25.6695 13.8 24.2395 14.91 23.4195C16.16 22.5195 18 22.2695 20.5 22.2695C23 22.2695 24.85 22.5295 26.08 23.4195ZM20.5 21.2695C18 21.2695 15.85 21.5095 14.33 22.6195C12.77 23.7495 12 25.6995 12 28.7695V29.2695H29V28.7695C29 25.6995 28.23 23.7495 26.67 22.6195C25.15 21.5195 23 21.2695 20.5 21.2695Z" fill="black"/>
</g>
<defs>
<clipPath id="clip0_5648_10263">
<rect width="18" height="19" fill="white" transform="translate(11.5 10.7695)"/>
</clipPath>
</defs>
</svg>
