<svg width="40" height="40" viewBox="0 0 40 40" fill="none" xmlns="http://www.w3.org/2000/svg">
<path fill-rule="evenodd" clip-rule="evenodd" d="M18.2646 10.7695C14.2557 10.7695 11 14.0252 11 18.0341C11 22.0431 14.2557 25.2987 18.2646 25.2987C22.2736 25.2987 25.5292 22.0431 25.5292 18.0341C25.5292 14.0252 22.2736 10.7695 18.2646 10.7695ZM18.2646 11.8872C21.6577 11.8872 24.4116 14.641 24.4116 18.0341C24.4116 21.4273 21.6577 24.1811 18.2646 24.1811C14.8715 24.1811 12.1176 21.4273 12.1176 18.0341C12.1176 14.641 14.8715 11.8872 18.2646 11.8872Z" fill="black"/>
<path fill-rule="evenodd" clip-rule="evenodd" d="M29.8354 28.8136L23.3989 22.3783C23.181 22.1604 22.8267 22.1604 22.6088 22.3783C22.3908 22.5962 22.3908 22.9505 22.6088 23.1685L29.0441 29.6049C29.2631 29.8228 29.6163 29.8228 29.8354 29.6049C30.0533 29.3858 30.0533 29.0327 29.8354 28.8136Z" fill="black"/>
</svg>
