<svg width="268" height="397" viewBox="0 0 268 397" fill="none" xmlns="http://www.w3.org/2000/svg">
<path d="M165.434 90.5957C176.883 93.1461 179.6 106.896 174.637 116.322C157.644 140.052 160.665 139.082 181.208 157.434C210.593 191.726 177.909 234.724 136.88 231.037C96.5994 230.288 73.1187 185.212 76.0295 158.986C83.4314 223.413 180.182 231.646 165.572 177.449C163.937 185.988 161.83 190.063 152.21 190.119C111.514 190.701 102.726 130.654 141.454 118.651C106.552 136.421 126.29 189.509 163.105 175.509C138.488 176.091 116.338 150.781 139.43 130.543C146.971 123.53 163.992 115.712 166.459 105.677C163.05 108.005 158.087 109.17 154.262 107.34C150.963 108.504 147.664 111.11 145.862 114.187C145.751 110.417 147.941 106.397 150.325 103.708C150.852 103.182 152.432 106.675 153.735 106.896C146.638 101.629 153.818 91.6491 160.749 90.7343M160.749 90.762C162.218 90.5403 163.798 90.4848 165.434 90.6234ZM154.178 99.6609C153.901 103.653 159.723 102.489 159.529 99.1341C158.281 99.7163 157.228 101.047 155.703 100.548C155.315 100.409 154.539 99.4668 154.206 99.6609H154.178Z" fill="#0A2C1C"/>
<path d="M210.424 0.0277222C205.684 22.0392 189.633 40.0309 170.144 50.4267C154.869 58.5771 137.487 61.1552 121.907 68.9452C104.165 77.844 89.8326 91.4002 86.5614 111.831C85.8961 115.99 86.0901 120.176 85.6466 124.306C81.6823 101.962 82.6803 77.3727 93.3256 56.886C106.826 30.8826 135.491 20.9857 162.853 16.966C173.859 15.3581 185.585 15.3027 195.704 10.1741C200.832 7.56817 205.878 3.82567 210.119 0H210.397L210.424 0.0277222ZM141.701 45.6585C122.434 47.1001 105.385 58.7157 98.4265 76.9292L102.723 70.858C111.151 60.5731 122.406 52.8108 134.77 47.9872L141.701 45.6308V45.6585Z" fill="#0A2C1C"/>
<path d="M154.122 76.4023C147.94 90.2357 136.13 100.354 124.542 109.558C118.471 114.382 112.816 117.598 108.269 124.306C97.3189 140.441 102.947 164.947 114.396 179.39L113.952 179.501C107.299 172.488 101.117 165.113 97.1526 156.187C88.7527 137.336 89.1963 109.558 106.523 95.8079C118.915 85.9942 134.439 85.9388 148.356 79.8122L154.149 76.4301L154.122 76.4023ZM119.635 102.628C113.952 104.734 109.933 110.085 107.604 115.463L112.317 109.253C114.59 106.841 116.946 104.596 119.635 102.628Z" fill="#0A2C1C"/>
<path d="M57.1492 161.149C62.6105 164.975 68.8203 185.905 70.1787 189.981C83.1527 228.487 109.711 250.803 153.955 238.217C124.653 256.763 68.3767 253.021 55.0146 208.859C51.6879 194.693 57.5928 181.359 57.7591 167.415C57.7591 167.304 57.1215 161.177 57.1215 161.177L57.1492 161.149ZM66.1035 200.764C65.6877 206.42 68.6817 211.937 72.3687 216.012C69.8183 211.576 66.9629 205.81 66.1035 200.764Z" fill="#0A2C1C"/>
<path d="M156.562 260.479C137.489 264.831 118.888 265.081 89.7793 252.495C151.378 266.938 216.83 224.468 192.989 170.409C224.87 207.141 195.041 251.718 156.562 260.479Z" fill="#0A2C1C"/>
<path d="M137.818 12.6411C104.912 15.552 80.5718 47.2385 78.9362 75.0162L75.4987 94.9207C71.3958 76.7904 71.3403 56.3868 78.4095 41.3614C87.5856 21.9004 111.149 6.51453 135.711 11.8095C136.488 11.9758 137.208 11.6986 137.818 12.6411Z" fill="#0A2C1C"/>
<path d="M154.455 107.451C154.455 107.451 148.689 109.392 145.862 114.216C145.141 109.836 149.881 103.404 150.408 103.432C151.129 103.487 151.655 105.594 154.483 107.451H154.455Z" fill="#0A2C1C"/>
<path d="M177.156 80.1179C176.713 83.5832 169.727 87.6861 166.566 88.5177L169.117 86.8544C172.166 84.3317 172.194 82.6961 172.915 79.0922C173.414 76.6249 177.517 77.3734 177.156 80.1179Z" fill="#0A2C1C"/>
<path d="M165.908 88.2398L167.322 85.6894C167.96 84.0537 168.126 82.5845 167.738 80.8657C167.599 80.2281 167.073 79.3964 167.211 78.7588C167.572 77.1232 170.261 77.04 170.593 78.8142C171.175 82.03 168.209 86.1606 165.936 88.2398H165.908Z" fill="#0A2C1C"/>
<path d="M164.16 87.877C163.828 87.877 164.16 87.4889 164.16 87.4057C164.16 86.7127 164.271 85.6315 164.16 84.9939C164.133 84.7721 163.772 83.9959 163.634 83.7741C163.329 83.2197 162.164 82.0276 162.137 81.6395C162.081 80.6692 163.301 80.0039 164.133 80.7247C165.63 82.0276 164.715 86.2137 164.133 87.877H164.16Z" fill="#0A2C1C"/>
<path d="M38.1708 317.434C32.8959 315.405 27.9108 314.391 23.2155 314.391C18.5782 314.391 14.9553 315.376 12.3468 317.347C9.73833 319.318 8.43409 322.042 8.43409 325.52C8.43409 329.752 10.6368 333.027 15.0422 335.345C17.0131 336.331 19.1579 337.258 21.4765 338.128C23.8531 338.939 26.2297 339.867 28.6064 340.91C30.983 341.954 33.1567 343.142 35.1276 344.475C37.0984 345.808 38.6925 347.663 39.9098 350.04C41.1271 352.358 41.7357 355.344 41.7357 358.996C41.7357 362.589 40.7213 365.662 38.6925 368.212C36.6637 370.763 34.2001 372.502 31.3018 373.429C28.4614 374.299 25.1284 374.733 21.3026 374.733C14.1728 374.733 8.0863 372.965 3.04323 369.43L3.47798 368.734C5.39086 370.241 7.85443 371.487 10.8687 372.473C13.9409 373.4 17.0711 373.864 20.2592 373.864C24.9545 373.864 28.9542 372.792 32.2582 370.647C35.6203 368.444 37.3013 365.227 37.3013 360.995C37.3013 356.358 35.0986 352.735 30.6931 350.127C28.7223 348.967 26.5486 347.895 24.1719 346.91C21.8533 345.924 19.5057 344.91 17.129 343.866C14.7524 342.765 12.5787 341.548 10.6078 340.215C6.20239 337.316 3.99967 333.201 3.99967 327.868C3.99967 323.636 5.41985 320.216 8.26019 317.608C11.1005 314.941 15.3611 313.608 21.0418 313.608C26.7804 313.608 32.606 314.593 38.5186 316.564L38.1708 317.434ZM50.8348 314.651V313.782H66.3118V314.651H62.0513V373.777H66.3118V374.646H50.8348V373.777H54.8345V314.651H50.8348ZM113.122 313.782V314.651H85.7328V340.736H111.122V341.606H85.7328V373.777H115.035V374.646H78.516V313.782H113.122ZM156.283 317.434C151.008 315.405 146.023 314.391 141.327 314.391C136.69 314.391 133.067 315.376 130.459 317.347C127.85 319.318 126.546 322.042 126.546 325.52C126.546 329.752 128.749 333.027 133.154 335.345C135.125 336.331 137.27 337.258 139.588 338.128C141.965 338.939 144.342 339.867 146.718 340.91C149.095 341.954 151.269 343.142 153.24 344.475C155.21 345.808 156.804 347.663 158.022 350.04C159.239 352.358 159.848 355.344 159.848 358.996C159.848 362.589 158.833 365.662 156.804 368.212C154.776 370.763 152.312 372.502 149.414 373.429C146.573 374.299 143.24 374.733 139.415 374.733C132.285 374.733 126.198 372.965 121.155 369.43L121.59 368.734C123.503 370.241 125.966 371.487 128.981 372.473C132.053 373.4 135.183 373.864 138.371 373.864C143.066 373.864 147.066 372.792 150.37 370.647C153.732 368.444 155.413 365.227 155.413 360.995C155.413 356.358 153.211 352.735 148.805 350.127C146.834 348.967 144.66 347.895 142.284 346.91C139.965 345.924 137.618 344.91 135.241 343.866C132.864 342.765 130.691 341.548 128.72 340.215C124.314 337.316 122.112 333.201 122.112 327.868C122.112 323.636 123.532 320.216 126.372 317.608C129.212 314.941 133.473 313.608 139.154 313.608C144.892 313.608 150.718 314.593 156.631 316.564L156.283 317.434ZM174.425 374.646H167.208V313.782H174.425V341.78H202.683V313.782H209.9V374.646H202.683V342.649H174.425V374.646ZM217.035 374.646H215.991L241.989 313.782L242.945 313.347L264.857 374.646H257.466L250.684 355.518H225.295L217.035 374.646ZM239.294 323.172L225.643 354.648H250.423L239.294 323.172Z" fill="#0A2C1C"/>
</svg>
